<svg width="68" height="40" viewBox="0 0 68 40" fill="none" xmlns="http://www.w3.org/2000/svg">
<path d="M7.58691 9.62109V14.0371H10.6582V17.5566H7.58691V26.5215C7.58691 27.1855 7.71419 27.6615 7.96875 27.9492C8.22331 28.237 8.71029 28.3809 9.42969 28.3809C9.96094 28.3809 10.4313 28.3421 10.8408 28.2646V31.9004C9.90007 32.1882 8.93164 32.332 7.93555 32.332C4.57096 32.332 2.85547 30.6331 2.78906 27.2354V17.5566H0.166016V14.0371H2.78906V9.62109H7.58691ZM12.0859 22.8525C12.0859 21.0706 12.429 19.4824 13.1152 18.0879C13.8014 16.6934 14.7865 15.6143 16.0703 14.8506C17.3652 14.0869 18.8649 13.7051 20.5693 13.7051C22.9932 13.7051 24.9688 14.4466 26.4961 15.9297C28.0345 17.4128 28.8923 19.4271 29.0693 21.9727L29.1025 23.2012C29.1025 25.957 28.3333 28.1706 26.7949 29.8418C25.2565 31.502 23.1924 32.332 20.6025 32.332C18.0127 32.332 15.943 31.502 14.3936 29.8418C12.8551 28.1816 12.0859 25.9238 12.0859 23.0684V22.8525ZM16.8838 23.2012C16.8838 24.9056 17.2048 26.2116 17.8467 27.1191C18.4886 28.0156 19.4072 28.4639 20.6025 28.4639C21.7646 28.4639 22.6722 28.0212 23.3252 27.1357C23.9782 26.2393 24.3047 24.8115 24.3047 22.8525C24.3047 21.1813 23.9782 19.8864 23.3252 18.9678C22.6722 18.0492 21.7536 17.5898 20.5693 17.5898C19.3962 17.5898 18.4886 18.0492 17.8467 18.9678C17.2048 19.8753 16.8838 21.2865 16.8838 23.2012ZM31.3105 22.8857C31.3105 20.0856 31.9359 17.8555 33.1865 16.1953C34.4482 14.5352 36.1693 13.7051 38.3496 13.7051C40.0983 13.7051 41.5426 14.3581 42.6826 15.6641V6.5H47.4971V32H43.1641L42.9316 30.0908C41.7363 31.585 40.1979 32.332 38.3164 32.332C36.2025 32.332 34.5036 31.502 33.2197 29.8418C31.9469 28.1706 31.3105 25.8519 31.3105 22.8857ZM36.1084 23.2344C36.1084 24.9167 36.4017 26.2061 36.9883 27.1025C37.5749 27.999 38.4271 28.4473 39.5449 28.4473C41.028 28.4473 42.0739 27.8219 42.6826 26.5713V19.4824C42.085 18.2318 41.0501 17.6064 39.5781 17.6064C37.265 17.6064 36.1084 19.4824 36.1084 23.2344Z" fill="#333333"/>
<path d="M30.2148 23.5H49.373V25.1934H30.2148V23.5Z" fill="#333333"/>
<path d="M68 22C68 28.0751 63.0751 33 57 33C50.9249 33 46 28.0751 46 22C46 15.9249 50.9249 11 57 11C63.0751 11 68 15.9249 68 22ZM55.7276 27.8244L63.8889 19.6631C64.1661 19.386 64.1661 18.9366 63.8889 18.6595L62.8853 17.6559C62.6082 17.3787 62.1588 17.3787 61.8816 17.6559L55.2258 24.3117L52.1184 21.2042C51.8412 20.9271 51.3919 20.9271 51.1147 21.2042L50.1111 22.2078C49.8339 22.485 49.8339 22.9343 50.1111 23.2115L54.724 27.8244C55.0011 28.1015 55.4505 28.1015 55.7276 27.8244Z" fill="#6FCF97"/>
</svg>
